<svg id="divider" viewBox="0 0 830 30" fill="none" xmlns="http://www.w3.org/2000/svg">
<path d="M408.2 5.625C408.2 2.5184 405.917 0 403.1 0C400.283 0 398 2.5184 398 5.625V24.375C398 27.4816 400.283 30 403.1 30C405.917 30 408.2 27.4816 408.2 24.375V5.625Z" fill="#CEE3E9"/>
<path d="M432 5.625C432 2.5184 429.717 0 426.9 0C424.083 0 421.8 2.5184 421.8 5.625V24.375C421.8 27.4816 424.083 30 426.9 30C429.717 30 432 27.4816 432 24.375V5.625Z" fill="#CEE3E9"/>
<line x1="804" y1="15.5" x2="446" y2="15.5" stroke="#4F5D74"/>
<line x1="381" y1="15.5" x2="23" y2="15.5" stroke="#4F5D74"/>
</svg>
